<svg width="15" height="16" viewBox="0 0 15 16" fill="none" xmlns="http://www.w3.org/2000/svg">
<path d="M5.46989 3.43792C6.25118 1.92518 6.64188 1.16876 7.22593 1.16876C7.80998 1.16876 8.20068 1.92518 8.98198 3.43792L9.18408 3.82927C9.40609 4.25922 9.51715 4.4742 9.69017 4.61597C9.86329 4.75773 10.0788 4.8104 10.51 4.91572L10.9025 5.01153C12.4198 5.38212 13.1784 5.56736 13.3588 6.1938C13.5393 6.82024 13.0221 7.47295 11.9878 8.77839L11.7202 9.1161C11.4263 9.48712 11.2794 9.67257 11.2132 9.90204C11.1471 10.1315 11.1693 10.379 11.2137 10.874L11.2542 11.3246C11.4106 13.0664 11.4888 13.9372 11.0163 14.3243C10.5438 14.7114 9.83345 14.3585 8.41296 13.6526L8.0454 13.4699C7.64172 13.2693 7.43983 13.169 7.22593 13.169C7.01204 13.169 6.81014 13.2693 6.40647 13.4699L6.03891 13.6526C4.61842 14.3585 3.90817 14.7114 3.43561 14.3243C2.96316 13.9372 3.04134 13.0664 3.19771 11.3246L3.23815 10.874C3.2826 10.379 3.30477 10.1315 3.23869 9.90204C3.17251 9.67257 3.02555 9.48712 2.73164 9.1161L2.4641 8.77839C1.42977 7.47295 0.912552 6.82024 1.09303 6.1938C1.27351 5.56736 2.0321 5.38212 3.54937 5.01153L3.94191 4.91572C4.37305 4.8104 4.58857 4.75773 4.7617 4.61597C4.93472 4.4742 5.04578 4.25922 5.26778 3.82937L5.46989 3.43792Z" fill="#FFC91C" stroke="#FFC91C" stroke-width="1.5"/>
</svg>
