<svg width="37" height="37" viewBox="0 0 37 37" fill="none" xmlns="http://www.w3.org/2000/svg">
<g filter="url(#filter0_d_1280_16505)">
<mask id="mask0_1280_16505" style="mask-type:alpha" maskUnits="userSpaceOnUse" x="4" y="4" width="29" height="29">
<rect x="4.37793" y="4.5332" width="28.4596" height="27.9961" rx="7" fill="#FF9933"/>
</mask>
<g mask="url(#mask0_1280_16505)">
<mask id="mask1_1280_16505" style="mask-type:alpha" maskUnits="userSpaceOnUse" x="2" y="2" width="38" height="33">
<rect x="2.38867" y="2.68066" width="36.686" height="31.699" rx="9" fill="white"/>
</mask>
<g mask="url(#mask1_1280_16505)">
<path d="M0.282227 2.68066H41.1836V13.2489H0.282227V2.68066Z" fill="#FF9933"/>
<path d="M0.282227 13.248H41.1836V23.8101H0.282227V13.248Z" fill="white"/>
<path d="M0.282227 23.8115H41.1836V34.3798H0.282227V23.8115Z" fill="#128807"/>
</g>
<mask id="mask2_1280_16505" style="mask-type:alpha" maskUnits="userSpaceOnUse" x="15" y="14" width="8" height="9">
<circle cx="18.6074" cy="18.5293" r="3.584" fill="#D9D9D9"/>
</mask>
<g mask="url(#mask2_1280_16505)">
<path d="M18.6191 22.118C20.5984 22.118 22.203 20.5135 22.203 18.5341C22.203 16.5548 20.5984 14.9502 18.6191 14.9502C16.6397 14.9502 15.0352 16.5548 15.0352 18.5341C15.0352 20.5135 16.6397 22.118 18.6191 22.118Z" fill="#000088"/>
<path d="M18.6184 21.6693C20.3503 21.6693 21.7543 20.2653 21.7543 18.5334C21.7543 16.8015 20.3503 15.3975 18.6184 15.3975C16.8864 15.3975 15.4824 16.8015 15.4824 18.5334C15.4824 20.2653 16.8864 21.6693 18.6184 21.6693Z" fill="white"/>
<path d="M18.6184 19.1596C18.9648 19.1596 19.2456 18.8788 19.2456 18.5325C19.2456 18.1861 18.9648 17.9053 18.6184 17.9053C18.272 17.9053 17.9912 18.1861 17.9912 18.5325C17.9912 18.8788 18.272 19.1596 18.6184 19.1596Z" fill="#000088"/>
<path d="M21.706 19.1044C21.7945 19.116 21.8757 19.0537 21.8874 18.9652C21.899 18.8767 21.8367 18.7955 21.7482 18.7838C21.6597 18.7721 21.5784 18.8345 21.5668 18.923C21.5551 19.0115 21.6174 19.0927 21.706 19.1044Z" fill="#000088"/>
<path d="M18.6183 21.6682L18.7258 19.7866L18.6183 18.8906L18.5107 19.7866L18.6183 21.6682Z" fill="#000088"/>
<path d="M21.4524 19.884C21.5349 19.9182 21.6294 19.879 21.6636 19.7965C21.6978 19.714 21.6586 19.6195 21.5761 19.5853C21.4936 19.5511 21.3991 19.5903 21.3649 19.6728C21.3307 19.7553 21.3699 19.8499 21.4524 19.884Z" fill="#000088"/>
<path d="M17.8059 21.5613L18.3967 19.7717L18.5248 18.8784L18.189 19.716L17.8059 21.5613Z" fill="#000088"/>
<path d="M21.0066 20.5727C21.0775 20.6271 21.1789 20.6137 21.2333 20.5429C21.2876 20.472 21.2743 20.3705 21.2035 20.3162C21.1326 20.2618 21.0311 20.2752 20.9768 20.346C20.9224 20.4169 20.9358 20.5184 21.0066 20.5727Z" fill="#000088"/>
<path d="M17.05 21.2492L18.0839 19.6735L18.4388 18.8438L17.8977 19.566L17.05 21.2492Z" fill="#000088"/>
<path d="M20.3966 21.121C20.4509 21.1918 20.5524 21.2052 20.6233 21.1508C20.6941 21.0965 20.7075 20.995 20.6531 20.9242C20.5987 20.8533 20.4973 20.84 20.4264 20.8943C20.3556 20.9487 20.3422 21.0502 20.3966 21.121Z" fill="#000088"/>
<path d="M16.3991 20.75L17.8056 19.4956L18.3631 18.786L17.6536 19.3435L16.3991 20.75Z" fill="#000088"/>
<path d="M19.6674 21.4948C19.7016 21.5773 19.7962 21.6164 19.8787 21.5823C19.9612 21.5481 20.0003 21.4535 19.9662 21.371C19.932 21.2885 19.8374 21.2494 19.7549 21.2835C19.6724 21.3177 19.6333 21.4123 19.6674 21.4948Z" fill="#000088"/>
<path d="M15.9022 20.101L17.5855 19.2534L18.3077 18.7123L17.478 19.0671L15.9022 20.101Z" fill="#000088"/>
<path d="M18.8656 21.6624C18.8772 21.751 18.9584 21.8133 19.047 21.8016C19.1355 21.79 19.1978 21.7088 19.1861 21.6202C19.1745 21.5317 19.0933 21.4694 19.0048 21.4811C18.9162 21.4927 18.8539 21.5739 18.8656 21.6624Z" fill="#000088"/>
<path d="M15.5891 19.3432L17.4343 18.9601L18.272 18.6244L17.3787 18.7524L15.5891 19.3432Z" fill="#000088"/>
<path d="M18.047 21.621C18.0354 21.7095 18.0977 21.7907 18.1862 21.8024C18.2747 21.814 18.3559 21.7517 18.3676 21.6632C18.3792 21.5747 18.3169 21.4935 18.2284 21.4818C18.1399 21.4702 18.0587 21.5325 18.047 21.621Z" fill="#000088"/>
<path d="M15.4822 18.5323L17.3638 18.6398L18.2598 18.5323L17.3638 18.4248L15.4822 18.5323Z" fill="#000088"/>
<path d="M17.2664 21.3664C17.2322 21.4489 17.2714 21.5435 17.3539 21.5777C17.4364 21.6118 17.5309 21.5727 17.5651 21.4902C17.5993 21.4077 17.5601 21.3131 17.4776 21.279C17.3951 21.2448 17.3005 21.284 17.2664 21.3664Z" fill="#000088"/>
<path d="M15.5881 17.719L17.3777 18.3098L18.271 18.4378L17.4334 18.1021L15.5881 17.719Z" fill="#000088"/>
<path d="M16.5806 20.9265C16.5263 20.9974 16.5396 21.0989 16.6105 21.1532C16.6813 21.2076 16.7828 21.1942 16.8371 21.1234C16.8915 21.0525 16.8781 20.9511 16.8073 20.8967C16.7365 20.8423 16.635 20.8557 16.5806 20.9265Z" fill="#000088"/>
<path d="M15.9031 16.97L17.4788 18.0039L18.3085 18.3587L17.5864 17.8176L15.9031 16.97Z" fill="#000088"/>
<path d="M16.0314 20.3175C15.9605 20.3718 15.9472 20.4733 16.0015 20.5442C16.0559 20.615 16.1574 20.6284 16.2282 20.574C16.299 20.5196 16.3124 20.4182 16.258 20.3473C16.2037 20.2765 16.1022 20.2631 16.0314 20.3175Z" fill="#000088"/>
<path d="M16.4014 16.319L17.6558 17.7255L18.3654 18.2831L17.8079 17.5735L16.4014 16.319Z" fill="#000088"/>
<path d="M15.6585 19.5844C15.5761 19.6186 15.5369 19.7132 15.5711 19.7957C15.6052 19.8782 15.6998 19.9173 15.7823 19.8832C15.8648 19.849 15.9039 19.7544 15.8698 19.6719C15.8356 19.5894 15.741 19.5503 15.6585 19.5844Z" fill="#000088"/>
<path d="M17.0513 15.8183L17.899 17.5015L18.4401 18.2237L18.0852 17.394L17.0513 15.8183Z" fill="#000088"/>
<path d="M15.4889 18.7855C15.4004 18.7972 15.3381 18.8784 15.3497 18.9669C15.3614 19.0554 15.4426 19.1177 15.5311 19.1061C15.6196 19.0944 15.682 19.0132 15.6703 18.9247C15.6587 18.8362 15.5774 18.7738 15.4889 18.7855Z" fill="#000088"/>
<path d="M17.8081 15.508L18.1913 17.3533L18.527 18.1909L18.399 17.2976L17.8081 15.508Z" fill="#000088"/>
<path d="M15.5323 17.966C15.4438 17.9543 15.3626 18.0166 15.3509 18.1051C15.3393 18.1937 15.4016 18.2749 15.4901 18.2865C15.5786 18.2982 15.6598 18.2359 15.6715 18.1473C15.6831 18.0588 15.6208 17.9776 15.5323 17.966Z" fill="#000088"/>
<path d="M18.62 15.4021L18.5125 17.2837L18.62 18.1797L18.7275 17.2837L18.62 15.4021Z" fill="#000088"/>
<path d="M15.783 17.1853C15.7005 17.1511 15.6059 17.1903 15.5717 17.2728C15.5376 17.3553 15.5767 17.4499 15.6592 17.484C15.7417 17.5182 15.8363 17.479 15.8705 17.3965C15.9046 17.3141 15.8655 17.2195 15.783 17.1853Z" fill="#000088"/>
<path d="M19.4305 15.508L18.8396 17.2976L18.7116 18.1909L19.0473 17.3533L19.4305 15.508Z" fill="#000088"/>
<path d="M16.2307 16.4937C16.1598 16.4393 16.0584 16.4527 16.004 16.5235C15.9497 16.5944 15.963 16.6959 16.0339 16.7502C16.1047 16.8046 16.2062 16.7912 16.2605 16.7204C16.3149 16.6495 16.3015 16.5481 16.2307 16.4937Z" fill="#000088"/>
<path d="M20.1873 15.8182L19.1534 17.3939L18.7985 18.2236L19.3396 17.5014L20.1873 15.8182Z" fill="#000088"/>
<path d="M16.8378 15.9454C16.7834 15.8746 16.6819 15.8612 16.6111 15.9156C16.5403 15.9699 16.5269 16.0714 16.5813 16.1423C16.6356 16.2131 16.7371 16.2264 16.8079 16.1721C16.8788 16.1177 16.8921 16.0163 16.8378 15.9454Z" fill="#000088"/>
<path d="M20.8362 16.3154L19.4297 17.5699L18.8722 18.2794L19.5818 17.7219L20.8362 16.3154Z" fill="#000088"/>
<path d="M17.5679 15.5726C17.5337 15.4901 17.4392 15.451 17.3567 15.4851C17.2742 15.5193 17.235 15.6139 17.2692 15.6963C17.3034 15.7788 17.3979 15.818 17.4804 15.7838C17.5629 15.7497 17.6021 15.6551 17.5679 15.5726Z" fill="#000088"/>
<path d="M21.3341 16.9664L19.6508 17.814L18.9287 18.3551L19.7584 18.0003L21.3341 16.9664Z" fill="#000088"/>
<path d="M18.3708 15.404C18.3591 15.3154 18.2779 15.2531 18.1894 15.2648C18.1008 15.2764 18.0385 15.3576 18.0502 15.4462C18.0618 15.5347 18.143 15.597 18.2316 15.5853C18.3201 15.5737 18.3824 15.4925 18.3708 15.404Z" fill="#000088"/>
<path d="M21.6473 17.7232L19.802 18.1063L18.9644 18.442L19.8576 18.314L21.6473 17.7232Z" fill="#000088"/>
<path d="M19.1903 15.4425C19.202 15.3539 19.1396 15.2727 19.0511 15.2611C18.9626 15.2494 18.8814 15.3117 18.8697 15.4003C18.8581 15.4888 18.9204 15.57 19.0089 15.5816C19.0974 15.5933 19.1786 15.531 19.1903 15.4425Z" fill="#000088"/>
<path d="M21.7551 18.5312L19.8735 18.4236L18.9775 18.5312L19.8735 18.6387L21.7551 18.5312Z" fill="#000088"/>
<path d="M19.969 15.698C20.0032 15.6155 19.964 15.5209 19.8815 15.4868C19.799 15.4526 19.7044 15.4918 19.6703 15.5743C19.6361 15.6568 19.6753 15.7513 19.7578 15.7855C19.8402 15.8197 19.9348 15.7805 19.969 15.698Z" fill="#000088"/>
<path d="M21.6473 19.3435L19.8576 18.7527L18.9644 18.6247L19.802 18.9604L21.6473 19.3435Z" fill="#000088"/>
<path d="M20.6586 16.1428C20.713 16.072 20.6996 15.9705 20.6288 15.9161C20.558 15.8618 20.4565 15.8751 20.4021 15.946C20.3478 16.0168 20.3611 16.1183 20.432 16.1726C20.5028 16.227 20.6043 16.2136 20.6586 16.1428Z" fill="#000088"/>
<path d="M21.3352 20.1013L19.7594 19.0674L18.9297 18.7126L19.6519 19.2537L21.3352 20.1013Z" fill="#000088"/>
<path d="M21.2059 16.7528C21.2768 16.6985 21.2901 16.597 21.2358 16.5262C21.1814 16.4553 21.08 16.442 21.0091 16.4963C20.9383 16.5507 20.9249 16.6521 20.9793 16.723C21.0336 16.7938 21.1351 16.8072 21.2059 16.7528Z" fill="#000088"/>
<path d="M20.8359 20.7513L19.5815 19.3448L18.8719 18.7873L19.4295 19.4968L20.8359 20.7513Z" fill="#000088"/>
<path d="M21.5758 17.482C21.6583 17.4478 21.6975 17.3532 21.6633 17.2707C21.6292 17.1883 21.5346 17.1491 21.4521 17.1833C21.3696 17.2174 21.3304 17.312 21.3646 17.3945C21.3988 17.477 21.4933 17.5161 21.5758 17.482Z" fill="#000088"/>
<path d="M20.184 21.2481L19.3364 19.5649L18.7953 18.8427L19.1501 19.6724L20.184 21.2481Z" fill="#000088"/>
<path d="M21.7474 18.2858C21.8359 18.2741 21.8982 18.1929 21.8866 18.1044C21.8749 18.0159 21.7937 17.9536 21.7052 17.9652C21.6167 17.9769 21.5544 18.0581 21.566 18.1466C21.5777 18.2351 21.6589 18.2974 21.7474 18.2858Z" fill="#000088"/>
<path d="M19.4292 21.5603L19.0461 19.7151L18.7103 18.8774L18.8383 19.7707L19.4292 21.5603Z" fill="#000088"/>
</g>
</g>
</g>
<defs>
<filter id="filter0_d_1280_16505" x="0.37793" y="0.533203" width="36.46" height="35.9961" filterUnits="userSpaceOnUse" color-interpolation-filters="sRGB">
<feFlood flood-opacity="0" result="BackgroundImageFix"/>
<feColorMatrix in="SourceAlpha" type="matrix" values="0 0 0 0 0 0 0 0 0 0 0 0 0 0 0 0 0 0 127 0" result="hardAlpha"/>
<feOffset/>
<feGaussianBlur stdDeviation="2"/>
<feComposite in2="hardAlpha" operator="out"/>
<feColorMatrix type="matrix" values="0 0 0 0 0.683333 0 0 0 0 0.683333 0 0 0 0 0.683333 0 0 0 0.25 0"/>
<feBlend mode="normal" in2="BackgroundImageFix" result="effect1_dropShadow_1280_16505"/>
<feBlend mode="normal" in="SourceGraphic" in2="effect1_dropShadow_1280_16505" result="shape"/>
</filter>
</defs>
</svg>
